<?xml version="1.0" encoding="utf-8"?>
<!-- Generator: Adobe Illustrator 23.0.2, SVG Export Plug-In . SVG Version: 6.00 Build 0)  -->
<svg version="1.1" id="Layer_1" xmlns="http://www.w3.org/2000/svg" xmlns:xlink="http://www.w3.org/1999/xlink" x="0px" y="0px"
	 width="27.4px" height="27.4px" viewBox="0 0 27.4 27.4" style="enable-background:new 0 0 27.4 27.4;" xml:space="preserve">
<style type="text/css">
	.st0{fill:#4D4D4D;}
	.st1{fill:#FFFFFF;}
</style>
<circle class="st0" cx="13.7" cy="13.7" r="13.7"/>
<g>
	<path class="st1" d="M9.8,13c-0.7,0.4-0.7,1,0,1.3l8.6,5c0.6,0.4,1.1,0.1,1.1-0.7V8.7c0-0.7-0.5-1-1.2-0.7L9.8,13z"/>
</g>
<g>
	<path class="st1" d="M6.6,9c0-0.6,0.5-1.1,1.1-1.1h0.4c0.6,0,1.1,0.5,1.1,1.1v9.4c0,0.6-0.5,1.1-1.1,1.1H7.7
		c-0.6,0-1.1-0.5-1.1-1.1V9z"/>
</g>
</svg>
