<?xml version="1.0" encoding="utf-8"?>
<!-- Generator: Adobe Illustrator 23.0.2, SVG Export Plug-In . SVG Version: 6.00 Build 0)  -->
<svg version="1.1" id="Layer_1" xmlns="http://www.w3.org/2000/svg" xmlns:xlink="http://www.w3.org/1999/xlink" x="0px" y="0px"
	 width="27.4px" height="27.4px" viewBox="0 0 27.4 27.4" style="enable-background:new 0 0 27.4 27.4;" xml:space="preserve">
<style type="text/css">
	.st0{fill:#4D4D4D;}
	.st1{fill:#FFFFFF;}
</style>
<circle class="st0" cx="13.7" cy="13.7" r="13.7"/>
<g>
	<path class="st1" d="M17.6,14.4c0.7-0.4,0.7-1,0-1.3L9,8.1C8.4,7.7,7.9,8,7.9,8.8v9.9c0,0.7,0.5,1,1.2,0.7L17.6,14.4z"/>
</g>
<g>
	<path class="st1" d="M20.8,18.4c0,0.6-0.5,1.1-1.1,1.1h-0.4c-0.6,0-1.1-0.5-1.1-1.1V9c0-0.6,0.5-1.1,1.1-1.1h0.4
		c0.6,0,1.1,0.5,1.1,1.1V18.4z"/>
</g>
</svg>
